<?xml version="1.0" encoding="UTF-8"?>
<!DOCTYPE svg PUBLIC "-//W3C//DTD SVG 1.1//EN" "http://www.w3.org/Graphics/SVG/1.1/DTD/svg11.dtd">
<svg xmlns="http://www.w3.org/2000/svg" version="1.1" width="500px" height="500px" style="shape-rendering:geometricPrecision; text-rendering:geometricPrecision; image-rendering:optimizeQuality; fill-rule:evenodd; clip-rule:evenodd" xmlns:xlink="http://www.w3.org/1999/xlink">
<g><path style="opacity:0.984" fill="#091c39" d="M 234.5,97.5 C 282.902,115.601 312.735,149.934 324,200.5C 325.061,207.202 326.228,213.869 327.5,220.5C 297.877,218.827 269.543,224.16 242.5,236.5C 239.414,190.192 236.747,143.859 234.5,97.5 Z"/></g>
<g><path style="opacity:0.923" fill="#091c39" d="M 227.5,108.5 C 228.833,108.5 230.167,108.5 231.5,108.5C 231.5,111.833 231.5,115.167 231.5,118.5C 198.138,125.264 173.972,143.931 159,174.5C 148.056,201.039 147.723,227.706 158,254.5C 160.909,261.324 164.576,267.658 169,273.5C 168.743,269.958 167.577,266.624 165.5,263.5C 224.979,250.738 284.645,238.738 344.5,227.5C 344.403,230.979 343.069,233.812 340.5,236C 319.167,240.667 297.833,245.333 276.5,250C 297.77,247.414 318.937,243.914 340,239.5C 340.5,239.667 341,239.833 341.5,240C 340.446,242.382 339.779,244.882 339.5,247.5C 326.117,250.012 312.784,252.845 299.5,256C 311.883,254.826 324.216,252.993 336.5,250.5C 337.167,250.667 337.833,250.833 338.5,251C 337.287,253.687 336.62,256.52 336.5,259.5C 332.447,260.013 328.447,260.846 324.5,262C 328.194,262.278 331.861,262.278 335.5,262C 334.446,263.388 334.28,264.888 335,266.5C 358.344,220.564 352.178,179.064 316.5,142C 305.961,133.226 294.295,126.226 281.5,121C 276.789,116.62 271.789,112.62 266.5,109C 301.828,114.756 328.328,133.256 346,164.5C 366.508,209.433 361.342,251.1 330.5,289.5C 326.487,287.494 322.82,284.994 319.5,282C 316.167,280 312.833,280 309.5,282C 298.779,291.989 288.112,291.989 277.5,282C 273.333,279.914 269.333,280.247 265.5,283C 259.202,289.074 251.869,290.74 243.5,288C 239.89,286.056 236.557,283.723 233.5,281C 230.366,280.21 227.366,280.543 224.5,282C 214.765,291.469 204.765,291.803 194.5,283C 192.361,281.596 190.028,280.763 187.5,280.5C 181.552,283.474 175.552,286.474 169.5,289.5C 141.03,256.03 133.863,218.363 148,176.5C 163.034,140.29 189.534,117.623 227.5,108.5 Z"/></g>
<g><path style="opacity:0.947" fill="#091c39" d="M 228.5,126.5 C 231.351,163.314 233.685,200.314 235.5,237.5C 212.363,238.555 190.363,243.722 169.5,253C 199.213,215.729 218.88,173.563 228.5,126.5 Z"/></g>
<g><path style="opacity:0.746" fill="#000000" d="M 207.5,299.5 C 210.741,299.878 213.741,300.878 216.5,302.5C 218.326,306.526 217.326,309.693 213.5,312C 216.111,316.448 219.778,319.615 224.5,321.5C 224.291,322.086 223.957,322.586 223.5,323C 221.167,323.667 218.833,323.667 216.5,323C 213.067,319.958 210.234,316.458 208,312.5C 206.972,316.389 207.805,319.723 210.5,322.5C 207.53,322.644 204.53,322.977 201.5,323.5C 197.756,322.3 197.923,320.967 202,319.5C 202.667,314.167 202.667,308.833 202,303.5C 201.075,302.953 200.242,302.287 199.5,301.5C 202.306,300.832 204.972,300.166 207.5,299.5 Z M 207.5,302.5 C 210.488,302.155 211.821,303.488 211.5,306.5C 211.821,309.512 210.488,310.845 207.5,310.5C 207.5,307.833 207.5,305.167 207.5,302.5 Z"/></g>
<g><path style="opacity:0.715" fill="#000000" d="M 270.5,299.5 C 273.741,299.878 276.741,300.878 279.5,302.5C 281.105,305.58 280.438,308.08 277.5,310C 281.892,312.963 282.559,316.63 279.5,321C 273.695,323.562 267.695,324.062 261.5,322.5C 261.833,321.5 262.5,320.833 263.5,320.5C 264.833,314.5 264.833,308.5 263.5,302.5C 262.692,302.192 262.025,301.692 261.5,301C 264.695,300.819 267.695,300.319 270.5,299.5 Z M 270.5,302.5 C 274.473,303.075 275.473,305.242 273.5,309C 272.552,309.483 271.552,309.649 270.5,309.5C 270.5,307.167 270.5,304.833 270.5,302.5 Z M 270.5,312.5 C 273.59,311.83 275.257,312.997 275.5,316C 275.252,319.082 273.585,320.582 270.5,320.5C 270.5,317.833 270.5,315.167 270.5,312.5 Z"/></g>
<g><path style="opacity:0.749" fill="#000000" d="M 298.5,299.5 C 311.452,300.259 315.618,306.593 311,318.5C 306.851,322.55 301.851,324.216 296,323.5C 293.5,323.167 291,322.833 288.5,322.5C 288.833,321.5 289.5,320.833 290.5,320.5C 291.496,314.537 291.829,308.537 291.5,302.5C 290.325,302.719 289.325,302.386 288.5,301.5C 291.977,300.833 295.311,300.166 298.5,299.5 Z M 297.5,302.5 C 305.47,303.056 308.637,307.389 307,315.5C 304.738,320.644 301.404,321.644 297,318.5C 296.219,313.083 296.385,307.75 297.5,302.5 Z"/></g>
<g><path style="opacity:0.777" fill="#000000" d="M 181.5,300.5 C 185.226,300.177 188.893,300.511 192.5,301.5C 191.675,302.386 190.675,302.719 189.5,302.5C 189.932,310.279 189.432,317.946 188,325.5C 185.749,329.126 182.582,330.293 178.5,329C 177.663,327.989 177.33,326.822 177.5,325.5C 179.722,325.178 181.556,325.845 183,327.5C 184.568,319.579 184.901,311.579 184,303.5C 182.583,302.922 181.75,301.922 181.5,300.5 Z"/></g>
<g><path style="opacity:0.777" fill="#000000" d="M 230.5,300.5 C 234.226,300.177 237.893,300.511 241.5,301.5C 240.758,302.287 239.925,302.953 239,303.5C 238.667,310.167 238.333,316.833 238,323.5C 236.268,328.617 232.768,330.45 227.5,329C 226.167,328 226.167,327 227.5,326C 229.367,325.289 230.867,325.789 232,327.5C 232.333,326.833 232.667,326.167 233,325.5C 233.5,317.841 233.666,310.174 233.5,302.5C 231.821,302.715 230.821,302.048 230.5,300.5 Z"/></g>
<g><path style="opacity:0.398" fill="#091c39" d="M 204.5,337.5 C 206.199,337.34 207.866,337.506 209.5,338C 205.834,338.39 205.668,339.557 209,341.5C 209.362,345.496 207.862,346.329 204.5,344C 205.5,343.667 206.5,343.333 207.5,343C 205.393,341.736 204.393,339.903 204.5,337.5 Z"/></g>
<g><path style="opacity:0.458" fill="#091c39" d="M 212.5,337.5 C 213.725,338.152 214.392,339.319 214.5,341C 214.167,342.167 213.833,343.333 213.5,344.5C 212.526,342.257 212.192,339.924 212.5,337.5 Z"/></g>
<g><path style="opacity:0.39" fill="#091c39" d="M 218.5,337.5 C 220.592,337.561 222.092,338.561 223,340.5C 223.333,339.5 223.667,338.5 224,337.5C 224.667,340.167 224.667,342.833 224,345.5C 223,344.167 222,342.833 221,341.5C 220.751,342.624 220.251,343.624 219.5,344.5C 218.526,342.257 218.192,339.924 218.5,337.5 Z"/></g>
<g><path style="opacity:0.402" fill="#091c39" d="M 229.5,337.5 C 231.199,337.34 232.866,337.506 234.5,338C 231.124,338.307 229.79,340.14 230.5,343.5C 231.873,343.343 233.207,343.51 234.5,344C 234.167,344.333 233.833,344.667 233.5,345C 231.893,344.981 230.226,344.815 228.5,344.5C 228.298,342.05 228.631,339.717 229.5,337.5 Z"/></g>
<g><path style="opacity:0.435" fill="#091c39" d="M 237.5,337.5 C 239.527,337.338 241.527,337.505 243.5,338C 239.068,338.623 238.735,339.623 242.5,341C 238.735,342.377 239.068,343.377 243.5,344C 241.527,344.495 239.527,344.662 237.5,344.5C 237.5,342.167 237.5,339.833 237.5,337.5 Z"/></g>
<g><path style="opacity:0.397" fill="#091c39" d="M 253.5,337.5 C 255.132,337.825 256.132,338.825 256.5,340.5C 255.802,341.863 255.802,343.029 256.5,344C 254.833,344.667 253.167,344.667 251.5,344C 252.687,342.981 253.687,341.814 254.5,340.5C 252.565,339.787 252.232,338.787 253.5,337.5 Z"/></g>
<g><path style="opacity:0.36" fill="#091c39" d="M 277.5,337.5 C 280.435,339.447 281.101,342.114 279.5,345.5C 277.983,346.911 276.649,346.744 275.5,345C 278.668,344.418 279.001,343.418 276.5,342C 279.276,340.221 278.943,339.221 275.5,339C 276.416,338.722 277.082,338.222 277.5,337.5 Z"/></g>
<g><path style="opacity:0.408" fill="#091c39" d="M 260.5,338.5 C 266.369,339.113 267.036,341.447 262.5,345.5C 259.497,343.822 258.831,341.489 260.5,338.5 Z M 261.5,339.5 C 263.852,340.543 264.019,341.876 262,343.5C 261.51,342.207 261.343,340.873 261.5,339.5 Z"/></g>
<g><path style="opacity:0.408" fill="#091c39" d="M 268.5,338.5 C 274.369,339.113 275.036,341.447 270.5,345.5C 267.497,343.822 266.831,341.489 268.5,338.5 Z M 269.5,339.5 C 271.852,340.543 272.019,341.876 270,343.5C 269.51,342.207 269.343,340.873 269.5,339.5 Z"/></g>
</svg>
